<svg xmlns="http://www.w3.org/2000/svg" width="22" height="18.514" viewBox="0 0 22 18.514"><defs><style>.a{fill:#040e45;}</style></defs><path class="a" d="M13.276,9.526a4,4,0,0,1,1.86,2.97,3.225,3.225,0,1,0-1.86-2.97Zm-2.114,6.606a3.226,3.226,0,1,0-3.227-3.226A3.227,3.227,0,0,0,11.162,16.132Zm1.369.22H9.793a4.136,4.136,0,0,0-4.131,4.131v3.348l.009.052.231.072a18.805,18.805,0,0,0,5.617.906,11.532,11.532,0,0,0,4.9-.921l.216-.109h.023V20.483A4.135,4.135,0,0,0,12.531,16.352Zm5.338-3.331H15.152a3.976,3.976,0,0,1-1.227,2.77,4.909,4.909,0,0,1,3.506,4.7V21.52a11.117,11.117,0,0,0,4.33-.91l.216-.109H22V17.152A4.136,4.136,0,0,0,17.869,13.021ZM5.5,12.8a3.205,3.205,0,0,0,1.716-.5,3.993,3.993,0,0,1,1.5-2.547c0-.06.009-.12.009-.181A3.226,3.226,0,1,0,5.5,12.8Zm2.9,2.989a3.979,3.979,0,0,1-1.226-2.754c-.1-.007-.2-.015-.3-.015H4.131A4.136,4.136,0,0,0,0,17.152V20.5l.009.052.231.073a19.37,19.37,0,0,0,4.652.874V20.488A4.91,4.91,0,0,1,8.4,15.791Z" transform="translate(0 -6.348)"/></svg>